<?xml version="1.0" encoding="UTF-8"?>
<svg xmlns="http://www.w3.org/2000/svg" viewBox="0 0 400 400" width="400" height="400">
  <defs>
    <linearGradient id="bg" x1="0" y1="0" x2="0" y2="1">
      <stop offset="0%" stop-color="#0d0d2b"/>
      <stop offset="100%" stop-color="#1a1a3e"/>
    </linearGradient>
  </defs>
  <rect width="400" height="400" fill="url(#bg)"/>
  <ellipse cx="148" cy="225" rx="12" ry="14" fill="none" stroke="#FFB0C8" stroke-width="2.5" stroke-linecap="round"/>
  <path d="M136,220 Q134,203 148,205 Q162,203 160,220" fill="none" stroke="#FFB0C8" stroke-width="1.5" stroke-linecap="round" stroke-linejoin="round" opacity="1"/>
  <path d="M136,220 Q140,235 138,250" fill="none" stroke="#FFB0C8" stroke-width="1.5" stroke-linecap="round" stroke-linejoin="round" opacity="1"/>
  <path d="M158,228 Q178,235 189.0,237.5 Q200,240 210.0,241.0 L220,242" fill="none" stroke="#FFB0C8" stroke-width="2.5" stroke-linecap="round" stroke-linejoin="round" opacity="1"/>
  <path d="M158,242 Q178,250 189.0,252.5 Q200,255 210.0,256.5 L220,258" fill="none" stroke="#FFB0C8" stroke-width="2.5" stroke-linecap="round" stroke-linejoin="round" opacity="1"/>
  <path d="M170,242 Q178,250 186,242" fill="none" stroke="#FFB0C8" stroke-width="1.5" stroke-linecap="round" stroke-linejoin="round" opacity="0.5"/>
  <path d="M148,232 Q142,255 141.0,267.5 Q140,280 141.0,292.5 L142,305" fill="none" stroke="#FFB0C8" stroke-width="2.5" stroke-linecap="round" stroke-linejoin="round" opacity="1"/>
  <path d="M155,242 Q152,265 151.0,277.5 Q150,290 151.0,300.0 L152,310" fill="none" stroke="#FFB0C8" stroke-width="2.5" stroke-linecap="round" stroke-linejoin="round" opacity="1"/>
  <path d="M220,242 Q232,240 237.0,239.0 L242,238" fill="none" stroke="#FFB0C8" stroke-width="2.5" stroke-linecap="round" stroke-linejoin="round" opacity="1"/>
  <path d="M220,258 Q230,262 235.0,263.5 L240,265" fill="none" stroke="#FFB0C8" stroke-width="2.5" stroke-linecap="round" stroke-linejoin="round" opacity="1"/>
  <ellipse cx="258" cy="170" rx="14" ry="17" fill="none" stroke="#E8608A" stroke-width="2.5" stroke-linecap="round"/>
  <path d="M246,165 Q244,150 258,151 Q272,150 270,165" fill="none" stroke="#E8608A" stroke-width="1.5" stroke-linecap="round" stroke-linejoin="round" opacity="1"/>
  <path d="M252,187 Q248,210 246.5,224.0 Q245,238 244.0,253.0 L243,268" fill="none" stroke="#E8608A" stroke-width="2.5" stroke-linecap="round" stroke-linejoin="round" opacity="1"/>
  <path d="M264,187 Q268,210 269.0,224.0 Q270,238 271.0,253.0 L272,268" fill="none" stroke="#E8608A" stroke-width="2.5" stroke-linecap="round" stroke-linejoin="round" opacity="1"/>
  <path d="M243,268 Q238,298 236.5,314.0 L235,330" fill="none" stroke="#E8608A" stroke-width="2.5" stroke-linecap="round" stroke-linejoin="round" opacity="1"/>
  <path d="M272,268 Q278,298 280.0,314.0 L282,330" fill="none" stroke="#E8608A" stroke-width="2.5" stroke-linecap="round" stroke-linejoin="round" opacity="1"/>
  <path d="M248,210 Q238,225 234.0,232.5 L230,240" fill="none" stroke="#E8608A" stroke-width="2.5" stroke-linecap="round" stroke-linejoin="round" opacity="1"/>
</svg>