<svg xmlns="http://www.w3.org/2000/svg" viewBox="0 0 200 200" width="200" height="200">
<defs>
<linearGradient id="g1" x1="0%" y1="0%" x2="100%" y2="100%">
<stop offset="0%" style="stop-color:#FF8FAB;stop-opacity:1" />
<stop offset="100%" style="stop-color:#FF6B8A;stop-opacity:1" />
</linearGradient>
<linearGradient id="g2" x1="0%" y1="0%" x2="100%" y2="100%">
<stop offset="0%" style="stop-color:#D4567A;stop-opacity:1" />
<stop offset="100%" style="stop-color:#C44569;stop-opacity:1" />
</linearGradient>
</defs>
<rect width="200" height="200" fill="#1a1a2e" rx="20"/>
    <text x="100" y="30" text-anchor="middle" fill="rgba(255,255,255,0.6)" font-family="-apple-system, sans-serif" font-size="11" font-weight="600">Om</text>

    <circle cx="88" cy="68" r="10" fill="url(#g1)" />
    <line x1="88" y1="76" x2="90" y2="82" stroke="url(#g1)" stroke-width="4" stroke-linecap="round"/>
    <line x1="90" y1="82" x2="92" y2="112" stroke="url(#g1)" stroke-width="8" stroke-linecap="round"/>
    <path d="M90,82 Q80.0,83.5 70,85" fill="none" stroke="url(#g1)" stroke-width="6" stroke-linecap="round"/>
    <path d="M90,82 Q99.0,82.0 108,82" fill="none" stroke="url(#g1)" stroke-width="6" stroke-linecap="round"/>
    <path d="M92,112 Q72,130 88,140" fill="none" stroke="url(#g1)" stroke-width="6" stroke-linecap="round"/>
    <path d="M92,112 Q112,130 98,140" fill="none" stroke="url(#g1)" stroke-width="6" stroke-linecap="round"/>

    <circle cx="112" cy="68" r="10" fill="url(#g2)" />
    <line x1="112" y1="76" x2="110" y2="82" stroke="url(#g2)" stroke-width="4" stroke-linecap="round"/>
    <line x1="110" y1="82" x2="108" y2="108" stroke="url(#g2)" stroke-width="8" stroke-linecap="round"/>
    <path d="M110,82 Q101.0,82.0 92,82" fill="none" stroke="url(#g2)" stroke-width="6" stroke-linecap="round"/>
    <path d="M110,82 Q120.0,83.5 130,85" fill="none" stroke="url(#g2)" stroke-width="6" stroke-linecap="round"/>
    <path d="M108,108 Q88,125 102,135" fill="none" stroke="url(#g2)" stroke-width="6" stroke-linecap="round"/>
    <path d="M108,108 Q128,125 115,138" fill="none" stroke="url(#g2)" stroke-width="6" stroke-linecap="round"/>
</svg>