<?xml version="1.0" encoding="UTF-8"?>
<svg xmlns="http://www.w3.org/2000/svg" viewBox="0 0 400 400" width="400" height="400">
  <rect width="400" height="400" fill="#FFFFFF"/>
  <g transform="rotate(178,170,275)">
  <path d="M156.35,264.0 C154.25,269.5 153.2,275 155.3,280.5 C159.5,284.625 158.45,288.75 155.3,292.875 L159.5,297.0 L180.5,297.0 L184.7,292.875 C181.55,288.75 180.5,284.625 184.7,280.5 C186.8,275 185.75,269.5 183.65,264.0 Z" fill="#FDDCBC" stroke="#3a3a3a" stroke-width="1.8" stroke-linecap="round" stroke-linejoin="round"/>
  <path d="M164.75,270.875 Q170,273.625 175.25,270.875" fill="none" stroke="#666666" stroke-width="0.8" stroke-linecap="round"/>
  <path d="M163.7,283.25 Q170,284.625 176.3,283.25" fill="none" stroke="#666666" stroke-width="0.8" stroke-linecap="round"/>
  <path d="M166.85,264.0 L167.48,259.875 L172.52,259.875 L173.15,264.0 Z" fill="#FDDCBC" stroke="#3a3a3a" stroke-width="1.8" stroke-linecap="round" stroke-linejoin="round"/>
  <path d="M156,250.75 C152,230.75 165,227.75 170,233.75 C175,227.75 188,230.75 184,250.75 C186,260.75 188,275.75 184,285.75 L180,280.75 C178,270.75 180,260.75 182,253.75 L158,253.75 C160,260.75 162,270.75 160,280.75 L156,285.75 C152,275.75 154,260.75 156,250.75 Z" fill="#8B6F47" stroke="#3a3a3a" stroke-width="1.2" stroke-linecap="round" stroke-linejoin="round"/>
  <ellipse cx="170" cy="255.75" rx="16" ry="19" fill="#FDDCBC" stroke="#3a3a3a" stroke-width="1.8"/>
  <path d="M165,263.75 Q170,269.75 175,263.75" fill="none" stroke="#666666" stroke-width="0.8" stroke-linecap="round"/>
  <path d="M162.65,295.625 C161.6,300.75 162.02,320.75 162.65,324.5 L166.85,324.5 C166.22,320.75 165.8,300.75 166.85,295.625 Z" fill="#FDDCBC" stroke="#3a3a3a" stroke-width="1.8" stroke-linecap="round" stroke-linejoin="round"/>
  <path d="M173.15,295.625 C174.2,300.75 173.78,320.75 173.15,324.5 L177.35,324.5 C177.98,320.75 178.4,300.75 177.35,295.625 Z" fill="#FDDCBC" stroke="#3a3a3a" stroke-width="1.8" stroke-linecap="round" stroke-linejoin="round"/>
  <path d="M162.65,322.5 L154.65,328.5 L168.85,328.5 L166.85,322.5 Z" fill="#FDDCBC" stroke="#3a3a3a" stroke-width="1.8" stroke-linecap="round" stroke-linejoin="round"/>
  <path d="M173.15,322.5 L171.15,328.5 L185.35,328.5 L177.35,322.5 Z" fill="#FDDCBC" stroke="#3a3a3a" stroke-width="1.8" stroke-linecap="round" stroke-linejoin="round"/>
  <path d="M156.35,266.75 C153.2,277.75 154.25,287.75 155.3,287.375 L161.3,287.375 C160.25,287.75 159.2,277.75 162.35,266.75 Z" fill="#FDDCBC" stroke="#3a3a3a" stroke-width="1.8" stroke-linecap="round" stroke-linejoin="round"/>
  <path d="M177.65,266.75 C180.8,277.75 179.75,287.75 178.7,287.375 L184.7,287.375 C185.75,287.75 186.8,277.75 183.65,266.75 Z" fill="#FDDCBC" stroke="#3a3a3a" stroke-width="1.8" stroke-linecap="round" stroke-linejoin="round"/>
  <ellipse cx="155.3" cy="287.375" rx="5" ry="5" fill="#FDDCBC" stroke="#3a3a3a" stroke-width="1.8"/>
  <ellipse cx="184.7" cy="287.375" rx="5" ry="5" fill="#FDDCBC" stroke="#3a3a3a" stroke-width="1.8"/>
  </g>
  <g transform="rotate(5,205,210)">
  <path d="M189.4,192.4 C187.0,201.2 185.8,210 188.2,218.8 C190.6,227.6 191.08,234.2 190.6,238.6 L193.0,245.2 L217.0,245.2 L219.4,238.6 C218.92,234.2 219.4,227.6 221.8,218.8 C224.2,210 223.0,201.2 220.6,192.4 Z" fill="#F5DEB3" stroke="#3a3a3a" stroke-width="1.8" stroke-linecap="round" stroke-linejoin="round"/>
  <path d="M196.6,201.2 Q205,205.6 213.4,201.2" fill="none" stroke="#666666" stroke-width="0.8" stroke-linecap="round"/>
  <path d="M205,210 L205,227.6" fill="none" stroke="#666666" stroke-width="0.8" stroke-linecap="round"/>
  <path d="M201.4,192.4 L202.12,185.8 L207.88,185.8 L208.6,192.4 Z" fill="#F5DEB3" stroke="#3a3a3a" stroke-width="1.8" stroke-linecap="round" stroke-linejoin="round"/>
  <path d="M190,171.2 C188,157.2 200,155.2 205,159.2 C210,155.2 222,157.2 220,171.2 C218,167.2 210,163.2 205,165.2 C200,163.2 192,167.2 190,171.2 Z" fill="#5C4033" stroke="#3a3a3a" stroke-width="1.2" stroke-linecap="round" stroke-linejoin="round"/>
  <ellipse cx="205" cy="179.2" rx="17" ry="18" fill="#F5DEB3" stroke="#3a3a3a" stroke-width="1.8"/>
  <path d="M197,185.2 Q205,193.2 213,185.2" fill="none" stroke="#666666" stroke-width="0.8" stroke-linecap="round"/>
  <path d="M196.6,243.0 C195.4,257.2 195.88,277.2 196.6,289.2 L201.4,289.2 C200.68,277.2 200.2,257.2 201.4,243.0 Z" fill="#F5DEB3" stroke="#3a3a3a" stroke-width="1.8" stroke-linecap="round" stroke-linejoin="round"/>
  <path d="M208.6,243.0 C209.8,257.2 209.32,277.2 208.6,289.2 L213.4,289.2 C214.12,277.2 214.6,257.2 213.4,243.0 Z" fill="#F5DEB3" stroke="#3a3a3a" stroke-width="1.8" stroke-linecap="round" stroke-linejoin="round"/>
  <path d="M196.6,287.2 L186.6,293.2 L203.4,293.2 L201.4,287.2 Z" fill="#F5DEB3" stroke="#3a3a3a" stroke-width="1.8" stroke-linecap="round" stroke-linejoin="round"/>
  <path d="M208.6,287.2 L206.6,293.2 L223.4,293.2 L213.4,287.2 Z" fill="#F5DEB3" stroke="#3a3a3a" stroke-width="1.8" stroke-linecap="round" stroke-linejoin="round"/>
  <path d="M189.4,196.8 C185.8,214.4 187.0,224.4 188.2,229.8 L196.2,229.8 C195.0,224.4 193.8,214.4 197.4,196.8 Z" fill="#F5DEB3" stroke="#3a3a3a" stroke-width="1.8" stroke-linecap="round" stroke-linejoin="round"/>
  <path d="M212.6,196.8 C216.2,214.4 215.0,224.4 213.8,229.8 L221.8,229.8 C223.0,224.4 224.2,214.4 220.6,196.8 Z" fill="#F5DEB3" stroke="#3a3a3a" stroke-width="1.8" stroke-linecap="round" stroke-linejoin="round"/>
  <ellipse cx="188.2" cy="229.8" rx="5" ry="5" fill="#F5DEB3" stroke="#3a3a3a" stroke-width="1.8"/>
  <ellipse cx="221.8" cy="229.8" rx="5" ry="5" fill="#F5DEB3" stroke="#3a3a3a" stroke-width="1.8"/>
  </g>
</svg>
