<?xml version="1.0" encoding="UTF-8"?>
<svg xmlns="http://www.w3.org/2000/svg" viewBox="0 0 400 400" width="400" height="400">
  <defs>
    <linearGradient id="bg" x1="0" y1="0" x2="0" y2="1">
      <stop offset="0%" stop-color="#0d0d2b"/>
      <stop offset="100%" stop-color="#1a1a3e"/>
    </linearGradient>
  </defs>
  <rect width="400" height="400" fill="url(#bg)"/>
  <ellipse cx="160" cy="275" rx="14" ry="17" fill="none" stroke="#FFB0C8" stroke-width="2.5" stroke-linecap="round"/>
  <path d="M148,270 Q146,253 160,255 Q174,253 172,270" fill="none" stroke="#FFB0C8" stroke-width="1.5" stroke-linecap="round" stroke-linejoin="round" opacity="1"/>
  <path d="M148,270 Q152,285 150,300" fill="none" stroke="#FFB0C8" stroke-width="1.5" stroke-linecap="round" stroke-linejoin="round" opacity="1"/>
  <path d="M165,292 Q170,310 172.5,320.0 Q175,330 176.5,337.5 L178,345" fill="none" stroke="#FFB0C8" stroke-width="2.5" stroke-linecap="round" stroke-linejoin="round" opacity="1"/>
  <path d="M155,292 Q152,310 151.0,320.0 Q150,330 151.0,337.5 L152,345" fill="none" stroke="#FFB0C8" stroke-width="2.5" stroke-linecap="round" stroke-linejoin="round" opacity="1"/>
  <path d="M155,308 Q163,316 171,308" fill="none" stroke="#FFB0C8" stroke-width="1.5" stroke-linecap="round" stroke-linejoin="round" opacity="0.5"/>
  <path d="M178,345 Q195,335 205.0,327.5 L215,320" fill="none" stroke="#FFB0C8" stroke-width="2.5" stroke-linecap="round" stroke-linejoin="round" opacity="1"/>
  <path d="M152,345 Q140,340 135.0,335.0 L130,330" fill="none" stroke="#FFB0C8" stroke-width="2.5" stroke-linecap="round" stroke-linejoin="round" opacity="1"/>
  <path d="M158,300 Q145,295 140.0,291.5 L135,288" fill="none" stroke="#FFB0C8" stroke-width="2.5" stroke-linecap="round" stroke-linejoin="round" opacity="1"/>
  <ellipse cx="225" cy="215" rx="14" ry="17" fill="none" stroke="#E8608A" stroke-width="2.5" stroke-linecap="round"/>
  <path d="M213,210 Q211,195 225,196 Q239,195 237,210" fill="none" stroke="#E8608A" stroke-width="1.5" stroke-linecap="round" stroke-linejoin="round" opacity="1"/>
  <path d="M219,232 Q215,255 213.5,267.5 Q212,280 211.0,292.5 L210,305" fill="none" stroke="#E8608A" stroke-width="2.5" stroke-linecap="round" stroke-linejoin="round" opacity="1"/>
  <path d="M231,232 Q235,255 236.5,267.5 Q238,280 239.0,292.5 L240,305" fill="none" stroke="#E8608A" stroke-width="2.5" stroke-linecap="round" stroke-linejoin="round" opacity="1"/>
  <path d="M210,305 Q205,325 203.5,336.5 L202,348" fill="none" stroke="#E8608A" stroke-width="2.5" stroke-linecap="round" stroke-linejoin="round" opacity="1"/>
  <path d="M240,305 Q245,325 246.5,336.5 L248,348" fill="none" stroke="#E8608A" stroke-width="2.5" stroke-linecap="round" stroke-linejoin="round" opacity="1"/>
  <path d="M215,255 Q205,270 201.5,277.5 L198,285" fill="none" stroke="#E8608A" stroke-width="2.5" stroke-linecap="round" stroke-linejoin="round" opacity="1"/>
</svg>