<svg xmlns="http://www.w3.org/2000/svg" viewBox="0 0 200 200" width="200" height="200">
<defs>
<linearGradient id="g1" x1="0%" y1="0%" x2="100%" y2="100%">
<stop offset="0%" style="stop-color:#FF8FAB;stop-opacity:1" />
<stop offset="100%" style="stop-color:#FF6B8A;stop-opacity:1" />
</linearGradient>
<linearGradient id="g2" x1="0%" y1="0%" x2="100%" y2="100%">
<stop offset="0%" style="stop-color:#D4567A;stop-opacity:1" />
<stop offset="100%" style="stop-color:#C44569;stop-opacity:1" />
</linearGradient>
</defs>
<rect width="200" height="200" fill="#1a1a2e" rx="20"/>
    <text x="100" y="30" text-anchor="middle" fill="rgba(255,255,255,0.6)" font-family="-apple-system, sans-serif" font-size="11" font-weight="600">Cascada</text>

    <circle cx="45" cy="145" r="10" fill="url(#g2)" />
    <line x1="45" y1="153" x2="60" y2="130" stroke="url(#g2)" stroke-width="4" stroke-linecap="round"/>
    <line x1="60" y1="130" x2="100" y2="118" stroke="url(#g2)" stroke-width="8" stroke-linecap="round"/>
    <path d="M60,130 Q47.5,135.0 35,140" fill="none" stroke="url(#g2)" stroke-width="6" stroke-linecap="round"/>
    <path d="M60,130 Q50.0,142.5 40,155" fill="none" stroke="url(#g2)" stroke-width="6" stroke-linecap="round"/>
    <path d="M100,118 Q120,100 140,90" fill="none" stroke="url(#g2)" stroke-width="6" stroke-linecap="round"/>
    <path d="M100,118 Q120,135 140,142" fill="none" stroke="url(#g2)" stroke-width="6" stroke-linecap="round"/>

    <circle cx="120" cy="78" r="10" fill="url(#g1)" />
    <line x1="120" y1="86" x2="118" y2="92" stroke="url(#g1)" stroke-width="4" stroke-linecap="round"/>
    <line x1="118" y1="92" x2="112" y2="112" stroke="url(#g1)" stroke-width="8" stroke-linecap="round"/>
    <path d="M118,92 Q109.0,88.5 100,85" fill="none" stroke="url(#g1)" stroke-width="6" stroke-linecap="round"/>
    <path d="M118,92 Q128.0,87.0 138,82" fill="none" stroke="url(#g1)" stroke-width="6" stroke-linecap="round"/>
    <path d="M112,112 Q115,135 112,155" fill="none" stroke="url(#g1)" stroke-width="6" stroke-linecap="round"/>
    <path d="M112,112 Q125,135 130,155" fill="none" stroke="url(#g1)" stroke-width="6" stroke-linecap="round"/>
</svg>